# xmcd CD database file
#
# Track frame offsets:
#	150
#	14201
#	27483
#	46239
#	58482
#	70483
#	80968
#	97192
#	116861
#	132238
#	148302
#	162928
#	181672
#
# Disc length: 2566 seconds
#
# Revision: 1
# Processed by: cddbd v1.5.1PL0 Copyright (c) Steve Scherf et al.
# Submitted via: CDex 1.50Beta2
#
DISCID=d00a040d
DTITLE=Urbanóides - Urbanóides
DYEAR=2002
DGENRE=Rock
TTITLE0=Internacionalista
TTITLE1=Intenções
TTITLE2=O que é Nosso?
TTITLE3=Meu modo de Ser
TTITLE4=Visão Crítica
TTITLE5=Conduta Junkie
TTITLE6=Enterro de Terceira
TTITLE7=Mensagem ao Vento
TTITLE8=Conselhos Gratuitos
TTITLE9=Meu Viver
TTITLE10=Fumaça
TTITLE11=Palavras Torpes
TTITLE12=Your Love Now
EXTD=YEAR: 2002
EXTT0=
EXTT1=
EXTT2=
EXTT3=
EXTT4=
EXTT5=
EXTT6=
EXTT7=
EXTT8=
EXTT9=
EXTT10=
EXTT11=
EXTT12=
PLAYORDER=
